<svg xmlns="http://www.w3.org/2000/svg" width="24" height="24" xmlns:v="https://vecta.io/nano"><path fill="white" d="M3 3c-1.093 0-2 .907-2 2v10c0 1.093.907 2 2 2h13c1.093 0 2-.907 2-2V5c0-1.093-.907-2-2-2H3zm0 2h13v7l-1.779-1.779a1.02 1.02 0 0 0-1.441-.002l-2.73 2.725c-.39.389-1.023.39-1.414.002a1 1 0 0 1-.004-1.418l.85-.85-1.324-1.395a1.02 1.02 0 0 0-1.463-.016L3 12.992V5zm8 1a1 1 0 1 0 0 2 1 1 0 1 0 0-2zm9.984.986A1 1 0 0 0 20 8v11H6a1 1 0 1 0 0 2h14c1.093 0 2-.907 2-2V8a1 1 0 0 0-1.016-1.014z"/></svg>