<svg xmlns="http://www.w3.org/2000/svg" width="24" height="24" xmlns:v="https://vecta.io/nano"><linearGradient  gradientUnits="userSpaceOnUse" x1="0" y1="0" x2="0" y2="-1"><stop offset="0" stop-color="#656565"/><stop offset=".618" stop-color="#1b1b1b"/><stop offset=".629" stop-color="#545454"/><stop offset=".983" stop-color="#3e3e3e"/></linearGradient><path d="M12 0h0A12.04 12.04 0 0 0 0 12h0a12.04 12.04 0 0 0 12 12h0a12.04 12.04 0 0 0 12-12h0A12.04 12.04 0 0 0 12 0zM8.9 18.2H6.3V9.9h2.6v8.3zM7.6 8.8a1.54 1.54 0 0 1-1.5-1.5 1.54 1.54 0 0 1 1.5-1.5 1.54 1.54 0 0 1 1.5 1.5 1.54 1.54 0 0 1-1.5 1.5zm11 9.4H16v-4.1c0-1 0-2.2-1.3-2.2S13.1 13 13.1 14v4.1h-2.6V9.9H13V11h0c.3-.7 1.2-1.3 2.5-1.3 2.6 0 3.1 1.7 3.1 4v4.5z" fill="#327af7"/></svg>