<svg xmlns="http://www.w3.org/2000/svg" width="24" height="24" xmlns:v="https://vecta.io/nano"><linearGradient  gradientUnits="userSpaceOnUse" x1="0" y1="0" x2="0" y2="-1"><stop offset="0" stop-color="#656565"/><stop offset=".618" stop-color="#1b1b1b"/><stop offset=".629" stop-color="#545454"/><stop offset=".983" stop-color="#3e3e3e"/></linearGradient><path d="M12 .1h0C5.3.1 0 5.5 0 12.1c0 6 4.4 11 10.2 11.8v-8.5H7.3v-3.5h2.9V8.7c.5-3.1 2.4-3.6 6.9-3.6h0v3.1h-2.4s-.9.2-1 .9 0 2.8 0 2.8H17l-.5 3.5h-2.9v8.5c5.9-.8 10.4-5.8 10.4-11.8 0-6.7-5.4-12-12-12z" fill="#327af7"/></svg>