<svg xmlns="http://www.w3.org/2000/svg" width="200" height="42" xmlns:v="https://vecta.io/nano"><path d="M21,0c11.6,0,21,9.4,21,21s-9.4,21-21,21S0,32.6,0,21S9.4,0,21,0" fill="#fff"/><path d="M33.5 20.9H42C42 9.3 32.6 0 21 0c-2.5 0-4.9.5-7.1 1.3l19.6 19.6z" fill="#ffd059"/><path d="M19.7 8.9l-7.1-7.1C5.2 5 0 12.4 0 21c0 2.3.4 4.5 1 6.6L19.7 8.9z" fill="#00b576"/><path d="M27.3 22.1v8.4H14.9v-8.4H8.4l-6.9 6.7C4.6 36.5 12.2 42 21 42c11.2 0 20.4-8.8 21-19.9H27.3zm0 13.6H14.9V33h12.4v2.7z" fill="#1f83f2"/><path d="M52.9 29.7V12.9h4.7c1.5 0 2.7.3 3.9 1 1.1.6 2 1.6 2.6 2.7.6 1.2.9 2.5.9 4.1v1.1c0 1.6-.3 3-.9 4.1-.6 1.2-1.5 2.1-2.6 2.7a8.05 8.05 0 0 1-3.9 1h-4.7zm2.2-15v13.1h2.3c1.7 0 3-.5 4-1.6.9-1.1 1.4-2.6 1.4-4.5v-1c0-1.9-.4-3.4-1.3-4.4-.9-1.1-2.2-1.6-3.8-1.6h-2.6zM74 19.1c-.3-.1-.7-.1-1-.1-1.4 0-2.3.6-2.8 1.8v8.8H68V17.2h2.1v1.4c.7-1.1 1.7-1.7 3-1.7.4 0 .7.1.9.2v2zm2-5.2c0-.3.1-.6.3-.9.2-.2.5-.4.9-.4s.7.1.9.4c.2.2.3.5.3.9 0 .3-.1.6-.3.9-.2.2-.5.3-.9.3s-.7-.1-.9-.3-.3-.5-.3-.9m2.3 15.8h-2.1V17.2h2.1v12.5zm7.5-2.9l3-9.6H91l-4.5 12.5h-1.6l-4.5-12.5h2.2zm12.3 3.1c-1.7 0-3.1-.6-4.1-1.7-1.1-1.1-1.6-2.6-1.6-4.4v-.4c0-1.2.2-2.3.7-3.3s1.1-1.7 2-2.3c.8-.5 1.8-.8 2.8-.8 1.6 0 2.9.5 3.8 1.6s1.3 2.6 1.3 4.6v.9h-8.4c0 1.2.4 2.2 1.1 3s1.6 1.1 2.6 1.1c.8 0 1.4-.2 1.9-.5s1-.7 1.4-1.2l1.3 1c-1.2 1.6-2.8 2.4-4.8 2.4m-.3-11.1c-.9 0-1.6.3-2.2.9s-.9 1.5-1.1 2.6h6.2v-.2c-.1-1.1-.4-1.9-.9-2.5-.4-.6-1.1-.8-2-.8m19.7-5.9v11.4c0 1.6-.5 2.9-1.5 3.9s-2.3 1.6-4 1.7h-.6c-1.8 0-3.3-.5-4.4-1.5s-1.6-2.3-1.7-4.1V12.9h2.2v11.3c0 1.2.3 2.1 1 2.8s1.6 1 2.8 1 2.2-.3 2.9-1 1-1.6 1-2.8V12.9h2.3zm13.6 10.7c0 1.9-.4 3.4-1.3 4.6s-2 1.7-3.5 1.7-2.7-.5-3.6-1.4v6h-2.1V17.2h1.9l.1 1.4c.9-1.1 2.1-1.6 3.6-1.6s2.7.6 3.5 1.7c.9 1.1 1.3 2.7 1.3 4.7v.2zm-2.1-.3c0-1.4-.3-2.5-.9-3.3s-1.4-1.2-2.5-1.2c-1.3 0-2.3.6-2.9 1.7v5.9c.6 1.1 1.6 1.7 2.9 1.7 1 0 1.8-.4 2.4-1.2.7-.8 1-2 1-3.6m5-11.3h2.1v17.6H134zm5 11.3c0-1.2.2-2.3.7-3.3s1.1-1.7 2-2.3c.9-.5 1.8-.8 2.9-.8 1.7 0 3.1.6 4.1 1.8s1.6 2.7 1.6 4.7v.1c0 1.2-.2 2.3-.7 3.3s-1.1 1.7-2 2.2-1.9.8-3 .8c-1.7 0-3-.6-4.1-1.8-1-1.2-1.6-2.7-1.6-4.7h0zm2.1.3c0 1.4.3 2.5 1 3.3s1.5 1.3 2.6 1.3 1.9-.4 2.6-1.3c.6-.8 1-2 1-3.6 0-1.4-.3-2.5-1-3.3a3.17 3.17 0 0 0-2.6-1.3c-1 0-1.9.4-2.5 1.3-.8.8-1.1 2-1.1 3.6m19.5 6.1c-.1-.2-.2-.7-.3-1.3-1 1-2.2 1.5-3.5 1.5-1.2 0-2.2-.3-3-1s-1.2-1.6-1.2-2.6c0-1.3.5-2.3 1.5-3s2.4-1.1 4.2-1.1h2.1v-1c0-.7-.2-1.3-.7-1.8-.4-.4-1.1-.7-2-.7-.8 0-1.4.2-1.9.6s-.8.8-.8 1.4h-2.1c0-.6.2-1.2.7-1.8.4-.6 1-1 1.8-1.4.8-.3 1.6-.5 2.5-.5 1.4 0 2.6.4 3.4 1.1s1.2 1.7 1.3 3v5.7c0 1.1.1 2 .4 2.7v.2h-2.4zm-3.5-1.7c.7 0 1.3-.2 1.9-.5s1-.8 1.3-1.3v-2.5h-1.7c-2.6 0-3.9.8-3.9 2.3 0 .7.2 1.2.7 1.6.4.3 1 .4 1.7.4m8.1-4.7c0-1.9.5-3.4 1.4-4.6s2.1-1.7 3.5-1.7c1.5 0 2.6.5 3.5 1.5V12h2.1v17.6h-2l-.1-1.3c-.9 1-2 1.6-3.5 1.6-1.4 0-2.6-.6-3.5-1.8s-1.4-2.7-1.4-4.6v-.2zm2.1.3c0 1.4.3 2.5.9 3.3s1.4 1.2 2.4 1.2c1.3 0 2.3-.6 3-1.8v-5.7c-.6-1.2-1.6-1.8-2.9-1.8-1 0-1.9.4-2.4 1.2-.7.8-1 2-1 3.6m16.8 6.3c-1.7 0-3.1-.6-4.1-1.7-1.1-1.1-1.6-2.6-1.6-4.4v-.4c0-1.2.2-2.3.7-3.3s1.1-1.7 2-2.3c.8-.5 1.8-.8 2.8-.8 1.6 0 2.9.5 3.8 1.6s1.3 2.6 1.3 4.6v.9h-8.4c0 1.2.4 2.2 1.1 3s1.6 1.1 2.6 1.1c.8 0 1.4-.2 1.9-.5s1-.7 1.4-1.2l1.3 1c-1.1 1.6-2.7 2.4-4.8 2.4m-.2-11.1c-.9 0-1.6.3-2.2.9s-.9 1.5-1.1 2.6h6.2v-.2c-.1-1.1-.4-1.9-.9-2.5-.4-.6-1.1-.8-2-.8m13.6.3c-.3-.1-.7-.1-1-.1-1.4 0-2.3.6-2.8 1.8v8.8h-2.1V17.2h2.1v1.4c.7-1.1 1.7-1.7 3-1.7.4 0 .7.1.9.2v2z" fill="#212121"/></svg>